<svg xmlns="http://www.w3.org/2000/svg" width="100%" height="auto">
  <!-- Banner -->
  <rect x="0" y="0" width="100%" height="200" fill="#ff0000" rx="20" ry="20"/>
  <text x="50%" y="100" text-anchor="middle" font-size="50" fill="white" font-family="Arial, sans-serif">REKT DEVELOPER</text>
  
  <!-- Typing Text (Static) -->
  <text x="50%" y="150" text-anchor="middle" font-size="28" fill="#FF0000" font-family="IBM Plex Mono, monospace">
    Web3 & Blockchain Developer; Smart Contract Security Expert; DApps & DeFi Specialist
  </text>
  
  <!-- Tech Stack Section -->
  <text x="50%" y="250" text-anchor="middle" font-size="24" fill="white" font-family="Arial, sans-serif">🛠 Tech Stack</text>
  
  <!-- Tech Stack Badges -->
  <g>
    <rect x="50" y="270" width="120" height="40" fill="#363636" rx="10" ry="10"/>
    <text x="110" y="300" text-anchor="middle" font-size="16" fill="white" font-family="Arial, sans-serif">Solidity</text>
    
    <rect x="180" y="270" width="120" height="40" fill="#007ACC" rx="10" ry="10"/>
    <text x="240" y="300" text-anchor="middle" font-size="16" fill="white" font-family="Arial, sans-serif">TypeScript</text>
    
    <rect x="310" y="270" width="120" height="40" fill="#3776AB" rx="10" ry="10"/>
    <text x="370" y="300" text-anchor="middle" font-size="16" fill="white" font-family="Arial, sans-serif">Python</text>
    
    <rect x="440" y="270" width="120" height="40" fill="#000000" rx="10" ry="10"/>
    <text x="500" y="300" text-anchor="middle" font-size="16" fill="white" font-family="Arial, sans-serif">Rust</text>
    
    <rect x="570" y="270" width="120" height="40" fill="#339933" rx="10" ry="10"/>
    <text x="630" y="300" text-anchor="middle" font-size="16" fill="white" font-family="Arial, sans-serif">Node.js</text>
  </g>

  <!-- GitHub Stats Section -->
  <text x="50%" y="350" text-anchor="middle" font-size="24" fill="white" font-family="Arial, sans-serif">GitHub Stats</text>
  
  <!-- GitHub Stats -->
  <g>
    <rect x="50" y="370" width="120" height="40" fill="#000000" rx="10" ry="10"/>
    <text x="110" y="400" text-anchor="middle" font-size="16" fill="white" font-family="Arial, sans-serif">Top Langs</text>
    
    <rect x="180" y="370" width="120" height="40" fill="#000000" rx="10" ry="10"/>
    <text x="240" y="400" text-anchor="middle" font-size="16" fill="white" font-family="Arial, sans-serif">Rekt's GitHub</text>
  </g>

  <!-- Footer -->
  <rect x="0" y="480" width="100%" height="150" fill="#ff0000" rx="20" ry="20"/>
  <text x="50%" y="550" text-anchor="middle" font-size="20" fill="white" font-family="Arial, sans-serif">Footer Text</text>
</svg>
